<?xml version="1.0" encoding="utf-8"?>
<!-- Generator: Adobe Illustrator 22.1.0, SVG Export Plug-In . SVG Version: 6.00 Build 0)  -->
<svg version="1.1" id="Layer_1" xmlns="http://www.w3.org/2000/svg" xmlns:xlink="http://www.w3.org/1999/xlink" x="0px" y="0px"
	 viewBox="0 0 700 700" style="enable-background:new 0 0 700 700;" xml:space="preserve">
<style type="text/css">
	.st0{fill:#252525;}
</style>
<path class="st0" d="M601.3,170.4h-42.1v-0.5c-0.3-8.1-6.9-14.5-15-14.5H36c-8.1,0-14.7,6.4-15,14.5c-0.2,5.5-0.3,72.3-0.3,75.3
	c0,107.2,37.1,213.1,96.1,282.7c8.9,10.5,22,16.7,35.8,16.7h274.2c14,0,27.3-6.3,36.2-17.1c45.4-55.3,75.7-121.6,87.7-192.4h50.5
	c43,0,77.9-34.9,78-78v-8.7C679.2,205.3,644.3,170.5,601.3,170.4z M649.3,257.1c0,26.5-21.5,48-48,48h-45.7
	c2.6-19.9,3.9-39.8,4-59.9c0-1.7,0-24.7-0.1-44.9h41.9c26.5,0,48,21.5,48,48V257.1z"/>
</svg>
